<svg width="84" height="51" viewBox="0 0 84 51" fill="none" xmlns="http://www.w3.org/2000/svg">
<path d="M2.22852 20.8621H3.03809C3.9925 20.8621 4.76659 21.6362 4.7666 22.5906C4.7666 23.5449 3.99223 24.319 3.03809 24.3191H2.22852C1.2738 24.3191 0.5 23.5451 0.5 22.5906C0.50001 21.6361 1.27381 20.8621 2.22852 20.8621Z" fill="#111111" stroke="black"/>
<path d="M9.20312 20.8621H21.5703C22.5249 20.8621 23.2998 21.6362 23.2998 22.5906C23.2998 23.5449 22.5249 24.3191 21.5703 24.3191H9.20312C8.24896 24.3191 7.47461 23.545 7.47461 22.5906C7.47462 21.6362 8.24896 20.8621 9.20312 20.8621Z" fill="#111111" stroke="black"/>
<path d="M10.5781 12.5895H11.3789C12.3336 12.5897 13.1072 13.3631 13.1074 14.318C13.1074 15.272 12.3337 16.0462 11.3789 16.0465H10.5781C9.62337 16.0465 8.84961 15.2721 8.84961 14.318C8.84979 13.3633 9.62357 12.5895 10.5781 12.5895Z" fill="#111111" stroke="black"/>
<path d="M17.5439 12.5895H24.0088C24.9632 12.5897 25.7371 13.3631 25.7373 14.318C25.7373 15.272 24.9634 16.0463 24.0088 16.0465H17.5439C16.5889 16.0463 15.8154 15.2722 15.8154 14.318C15.8156 13.4231 16.4955 12.6869 17.3672 12.5983L17.5439 12.5895Z" fill="#111111" stroke="black"/>
<path d="M10.5781 29.1357H11.3887C12.343 29.136 13.117 29.9097 13.1172 30.8643C13.1172 31.8183 12.3433 32.5926 11.3887 32.5928H10.5781C9.62332 32.5928 8.84961 31.8187 8.84961 30.8643C8.84979 29.9096 9.62357 29.1357 10.5781 29.1357Z" fill="#111111" stroke="black"/>
<path d="M17.5537 29.1357H24.0088C24.9631 29.136 25.7371 29.9097 25.7373 30.8643C25.7373 31.8182 24.9633 32.5925 24.0088 32.5928H17.5537C16.5989 32.5927 15.8252 31.8186 15.8252 30.8643C15.8254 29.9693 16.5054 29.2331 17.377 29.1445L17.5537 29.1357Z" fill="#111111" stroke="black"/>
<path d="M15.5083 0.890625H56.1216C57.0762 0.890806 57.8501 1.66449 57.8501 2.61914V12.5898H70.9956C71.4809 12.5898 71.9442 12.7936 72.271 13.1514L72.272 13.1523L82.9673 24.8506C83.2588 25.1697 83.4209 25.5864 83.4204 26.0166V42.5635C83.4204 43.5182 82.6466 44.292 81.6919 44.292H76.0356L75.9292 44.6494C75.0279 47.677 72.2201 49.8906 68.9058 49.8906C65.5928 49.8905 62.7848 47.6769 61.8833 44.6494L61.7769 44.292H34.2993L34.1929 44.6494C33.2913 47.6771 30.4832 49.8906 27.1694 49.8906C23.8557 49.8905 21.0475 47.6769 20.147 44.6494L20.0405 44.292H15.5083C14.5535 44.292 13.7798 43.5185 13.7798 42.5635C13.7798 41.6091 14.5535 40.835 15.5083 40.835H20.0405L20.147 40.4775C21.0476 37.4496 23.8557 35.2364 27.1694 35.2363C30.4831 35.2363 33.2913 37.4493 34.1929 40.4775L34.2993 40.835H54.3921V4.34766H15.5083C14.5536 4.34765 13.7798 3.57363 13.7798 2.61914C13.7798 1.66466 14.5536 0.89063 15.5083 0.890625ZM27.1694 38.6934C25.0351 38.6935 23.2995 40.4293 23.2993 42.5635C23.2993 44.6981 25.0351 46.4344 27.1694 46.4346C29.3038 46.4346 31.0399 44.6983 31.0396 42.5635C31.0394 40.4296 29.3039 38.6934 27.1694 38.6934ZM68.9067 38.6934C66.7727 38.6934 65.0368 40.4292 65.0366 42.5635C65.0366 44.6982 66.7723 46.4346 68.9067 46.4346C71.0415 46.4344 72.7772 44.6983 72.7769 42.5635C72.7767 40.4296 71.0416 38.6935 68.9067 38.6934ZM57.8501 40.8359H61.7769L61.8833 40.4785C62.7848 37.4502 65.5932 35.2363 68.9067 35.2363C72.2212 35.2363 75.029 37.4502 75.9302 40.4785L76.4097 40.4082V40.835H79.9644V27.7461H64.0122C63.0581 27.7461 62.2837 26.9727 62.2837 26.0176C62.2837 25.063 63.0582 24.2891 64.0122 24.2891H77.77L77.0044 23.4512L70.3833 16.21L70.2349 16.0469H57.8501V40.8359Z" fill="#111111" stroke="black"/>
</svg>
